<svg preserveAspectRatio="none" width="100%" height="100%" overflow="visible" style="display: block;" viewBox="0 0 33.7838 33.7838" fill="none" xmlns="http://www.w3.org/2000/svg">
<g id="mynaui:play-solid">
<path id="Vector" d="M17.6001 9.86751L17.5072 9.8112C16.4542 9.17072 15.528 8.60625 14.7341 8.3219C14.2964 8.1537 13.8285 8.07843 13.3602 8.1009C12.8672 8.13853 12.396 8.31958 12.0046 8.62173C11.1896 9.23266 10.8377 10.1322 10.6448 11.1274C10.4576 12.0916 10.3858 13.3472 10.2971 14.876L10.2929 14.9548C10.2394 15.8698 10.2056 16.7749 10.2056 17.5956C10.2056 18.4162 10.2394 19.3227 10.2929 20.2377L10.2971 20.3151C10.3858 21.8439 10.4576 23.0995 10.6448 24.0623C10.8377 25.059 11.1896 25.957 12.0046 26.5694C12.4072 26.872 12.8591 27.0522 13.3602 27.0902C13.8416 27.1254 14.3033 27.024 14.7341 26.8692C15.528 26.5849 16.4542 26.0204 17.5072 25.3813L17.6001 25.325C18.1997 24.959 18.7881 24.5832 19.3132 24.213C19.9562 23.7555 20.583 23.2757 21.1924 22.7743L21.2628 22.7166C22.3382 21.8396 23.2504 21.095 23.881 20.363C24.568 19.5606 24.986 18.6992 24.986 17.5956C24.986 16.4919 24.568 15.6291 23.8796 14.8281C23.2504 14.0961 22.3382 13.3501 21.2642 12.4745L21.1938 12.4168C20.5547 11.8959 19.9128 11.3976 19.3132 10.9782C18.754 10.5895 18.1827 10.2187 17.6001 9.8661" fill="var(--fill-0, #9BFE03)"/>
</g>
</svg>
