<svg preserveAspectRatio="none" width="100%" height="100%" overflow="visible" style="display: block;" viewBox="0 0 35.3535 33.5859" fill="none" xmlns="http://www.w3.org/2000/svg">
<g id="Add-User">
<path id="Vector" d="M13.2576 22.1228C20.4464 22.1228 26.5152 23.3057 26.5152 27.8741C26.5152 32.4424 20.4074 33.5859 13.2576 33.5859C6.0688 33.5859 0 32.4012 0 27.8346C0 23.2663 6.10595 22.1228 13.2576 22.1228ZM30.0487 8.83838C30.9259 8.83838 31.6378 9.56215 31.6378 10.4498V12.5291H33.7644C34.6398 12.5291 35.3535 13.2528 35.3535 14.1405C35.3535 15.0282 34.6398 15.7519 33.7644 15.7519H31.6378V17.833C31.6378 18.7207 30.9259 19.4444 30.0487 19.4444C29.1733 19.4444 28.4596 18.7207 28.4596 17.833V15.7519H26.3366C25.4594 15.7519 24.7475 15.0282 24.7475 14.1405C24.7475 13.2528 25.4594 12.5291 26.3366 12.5291H28.4596V10.4498C28.4596 9.56215 29.1733 8.83838 30.0487 8.83838ZM13.2576 0C18.1268 0 22.0299 3.95364 22.0299 8.88583C22.0299 13.818 18.1268 17.7717 13.2576 17.7717C8.38838 17.7717 4.48525 13.818 4.48525 8.88583C4.48525 3.95364 8.38838 0 13.2576 0Z" fill="var(--fill-0, white)"/>
</g>
</svg>
