<svg preserveAspectRatio="none" width="100%" height="100%" overflow="visible" style="display: block;" viewBox="0 0 35.8326 34.1695" fill="none" xmlns="http://www.w3.org/2000/svg">
<g id="Group">
<path id="Vector" d="M17.9026 14.5833H17.9159M11.2492 14.5833H11.2642" stroke="var(--stroke-0, white)" stroke-width="3.33333" stroke-linecap="round" stroke-linejoin="round"/>
<path id="Vector_2" d="M24.5559 14.5833H24.5826M11.2492 14.5833H11.2792" stroke="var(--stroke-0, white)" stroke-width="3.33333" stroke-linecap="round" stroke-linejoin="round"/>
<path id="Vector_3" d="M34.5159 11.25C34.5593 12.46 34.5826 13.3 34.5826 14.585C34.5826 15.87 34.5593 17.1233 34.5159 18.335C34.3776 22.29 34.3076 24.2683 32.6993 25.89C31.0909 27.51 29.0559 27.5967 24.9893 27.7717C23.7648 27.8239 22.5009 27.8628 21.1976 27.8883C19.9643 27.9117 19.3459 27.9217 18.8026 28.13C18.2593 28.3383 17.8026 28.7267 16.8893 29.51L13.2576 32.6267C13.0807 32.7782 12.8641 32.8758 12.6334 32.9079C12.4027 32.9399 12.1677 32.9051 11.9562 32.8075C11.7447 32.71 11.5657 32.5537 11.4404 32.3574C11.3151 32.1611 11.2487 31.9329 11.2493 31.7V27.7867L10.8426 27.77C6.77594 27.595 4.74261 27.5083 3.13261 25.8867C1.52427 24.2667 1.45427 22.2883 1.31594 18.3333C1.22802 15.8341 1.22802 13.3326 1.31594 10.8333C1.45427 6.87834 1.52427 4.9 3.13261 3.27834C4.74094 1.65834 6.77594 1.57167 10.8426 1.39667C12.0509 1.35 13.2993 1.275 14.5826 1.25" stroke="var(--stroke-0, white)" stroke-width="2.5" stroke-linecap="round" stroke-linejoin="round"/>
</g>
</svg>
