<svg preserveAspectRatio="none" width="100%" height="100%" overflow="visible" style="display: block;" viewBox="0 0 37.9347 39.2972" fill="none" xmlns="http://www.w3.org/2000/svg">
<g id="Container">
<path id="Icon" d="M32.5058 12.0484L34.025 8.65074L37.3313 7.13071C38.1356 6.86248 38.1356 5.78952 37.3313 5.43187L34.025 3.91183L32.5058 0.60354C32.1483 -0.20118 31.1654 -0.20118 30.8079 0.60354L29.2887 3.91183L25.8928 5.43187C25.1779 5.78952 25.1779 6.77306 25.8928 7.13071L29.2887 8.65074L30.8079 12.0484C31.0759 12.7638 32.1483 12.7638 32.5058 12.0484ZM17.314 14.9097L14.2757 8.20367C13.6502 6.68365 11.5055 6.68365 10.8799 8.20367L7.84158 14.9097L1.13938 17.9497C-0.379792 18.5756 -0.379792 20.7216 1.13938 21.3474L7.84158 24.3876L10.8799 31.0935C11.5055 32.6136 13.6502 32.6136 14.2757 31.0935L17.314 24.3876L24.0163 21.3474C25.5354 20.7216 25.5354 18.5756 24.0163 17.9497L17.314 14.9097ZM30.8079 27.2488L29.2887 30.6464L25.8928 32.1665C25.1779 32.4347 25.1779 33.5076 25.8928 33.8653L29.2887 35.3853L30.8079 38.6937C31.0759 39.4983 32.1483 39.4983 32.5058 38.6937L34.025 35.3853L37.3313 33.8653C38.1356 33.5076 38.1356 32.5241 37.3313 32.1665L34.025 30.6464L32.5058 27.2488C32.1483 26.5335 31.0759 26.5335 30.8079 27.2488Z" fill="var(--fill-0, #9BFE03)" fill-opacity="0.9"/>
</g>
</svg>
