<svg preserveAspectRatio="none" width="100%" height="100%" overflow="visible" style="display: block;" viewBox="0 0 37 35" fill="none" xmlns="http://www.w3.org/2000/svg">
<g id="Icon" clip-path="url(#clip0_240_1023)">
<path id="Icon_2" d="M35.0805 5.53086H31.1521V1.81481C31.1521 0.777777 30.3298 0 29.2336 0C28.1373 0 27.315 0.777777 27.315 1.81481V5.53086H23.3866C22.2904 5.53086 21.4681 6.30864 21.4681 7.34568C21.4681 8.38271 22.2904 9.16048 23.3866 9.16048H27.315V12.8765C27.315 13.9136 28.1373 14.6913 29.2336 14.6913C30.3298 14.6913 31.1521 13.9136 31.1521 12.8765V9.16048H35.0805C36.1768 9.16048 36.999 8.38271 36.999 7.34568C36.999 6.30864 36.1768 5.53086 35.0805 5.53086ZM25.3052 12.8765V11.0617H23.3866C22.2904 11.0617 21.3769 10.6296 20.646 9.93825C19.9151 9.24689 19.4583 8.38271 19.4583 7.34568C19.4583 6.65432 19.6409 6.04937 20.0064 5.53086H3.9274C1.73482 5.53086 -0.000976562 7.17282 -0.000976562 9.16048V31.284C-0.000976562 33.3581 1.73482 35 3.9274 35H27.315C29.4164 35 31.1521 33.3581 31.1521 31.284V16.0741C30.6039 16.3333 29.9644 16.5926 29.2336 16.5926C27.041 16.5061 25.3052 14.8642 25.3052 12.8765ZM25.2138 31.284H5.84593C5.0237 31.284 4.56692 30.4197 5.0237 29.8148L8.9521 24.9753C9.31753 24.4567 10.1397 24.5432 10.5052 25.0618L13.6114 29.4691L18.7274 23.074C19.0928 22.5556 19.9151 22.5556 20.2804 23.074L26.0361 29.8148C26.4929 30.4197 26.0361 31.284 25.2138 31.284Z" fill="var(--fill-0, #6B7280)"/>
</g>
<defs>
<clipPath id="clip0_240_1023">
<rect width="37" height="35" fill="white"/>
</clipPath>
</defs>
</svg>
