<svg preserveAspectRatio="none" width="100%" height="100%" overflow="visible" style="display: block;" viewBox="0 0 40 40" fill="none" xmlns="http://www.w3.org/2000/svg">
<g id="solar:book-bold">
<rect x="0.729167" y="0.729167" width="38.5417" height="38.5417" stroke="var(--stroke-0, black)" stroke-width="1.45833"/>
<path id="Vector" fill-rule="evenodd" clip-rule="evenodd" d="M10.4517 3.52C9.10167 3.69667 8.38833 4.02167 7.87833 4.52C7.37 5.02 7.03833 5.72 6.85667 7.04167C6.67 8.40333 6.66667 10.2067 6.66667 12.7917V27.075C7.32663 26.6244 8.05888 26.2901 8.83167 26.0867C9.71167 25.855 10.7383 25.855 12.2433 25.8567H33.3333V12.7933C33.3333 10.2067 33.33 8.40333 33.1433 7.04167C32.9617 5.72 32.63 5.02 32.1217 4.52C31.6117 4.02167 30.8983 3.69667 29.5483 3.52C28.1583 3.33667 26.3183 3.33333 23.6783 3.33333H16.3217C13.6817 3.33333 11.8417 3.33667 10.4517 3.52ZM11.265 10.9917C11.265 10.245 11.8817 9.64 12.6433 9.64H27.3567C27.7183 9.63689 28.0664 9.77722 28.3247 10.0303C28.5831 10.2833 28.7306 10.6284 28.735 10.99C28.731 11.3519 28.5837 11.6974 28.3253 11.9508C28.0669 12.2042 27.7186 12.3448 27.3567 12.3417H12.6433C12.2817 12.3448 11.9336 12.2045 11.6753 11.9514C11.4169 11.6984 11.2694 11.3533 11.265 10.9917ZM12.6433 15.9467C12.2817 15.9436 11.9336 16.0839 11.6753 16.3369C11.4169 16.59 11.2694 16.9351 11.265 17.2967C11.265 18.0433 11.8817 18.6483 12.6433 18.6483H21.8383C22.2002 18.6519 22.5488 18.5118 22.8075 18.2587C23.0662 18.0056 23.2139 17.6602 23.2183 17.2983C23.2144 16.9362 23.0668 16.5904 22.8081 16.3369C22.5493 16.0835 22.2005 15.9431 21.8383 15.9467H12.6433Z" fill="var(--fill-0, white)"/>
<path id="Vector_2" d="M12.455 28.5583H33.3333C33.3283 30.4417 33.2983 31.8483 33.145 32.9583C32.9633 34.28 32.6317 34.98 32.1233 35.48C31.6133 35.9783 30.9 36.3033 29.55 36.48C28.16 36.6633 26.32 36.6667 23.68 36.6667H16.3217C13.6817 36.6667 11.8417 36.6633 10.4517 36.4817C9.10166 36.3033 8.38833 35.9783 7.87833 35.48C7.37 34.98 7.03833 34.28 6.85666 32.9583C6.78833 32.4583 6.74333 31.8967 6.71666 31.2583C6.94511 30.6341 7.32192 30.0747 7.81464 29.6284C8.30736 29.1821 8.90121 28.8624 9.545 28.6967C10.0283 28.57 10.6567 28.5583 12.455 28.5583Z" fill="var(--fill-0, white)"/>
</g>
</svg>
