<svg preserveAspectRatio="none" width="100%" height="100%" overflow="visible" style="display: block;" viewBox="0 0 135 70.7607" fill="none" xmlns="http://www.w3.org/2000/svg">
<g id="Union">
<mask id="path-1-inside-1_233_876" fill="white">
<path d="M118.108 0C127.437 5.68569e-05 135 7.5625 135 16.8916V47H39.1357V70.7607H0.135742V47H0V18.0176C0 8.0665 8.06748 0 18.0186 0H118.108Z"/>
</mask>
<path d="M118.108 0C127.437 5.68569e-05 135 7.5625 135 16.8916V47H39.1357V70.7607H0.135742V47H0V18.0176C0 8.0665 8.06748 0 18.0186 0H118.108Z" fill="var(--fill-0, #343439)"/>
<path d="M118.108 0L118.108 -1.12613H118.108V0ZM135 47V48.1261H136.126V47H135ZM39.1357 47V45.8739H38.0096V47H39.1357ZM39.1357 70.7607V71.8869H40.2619V70.7607H39.1357ZM0.135742 70.7607H-0.990384V71.8869H0.135742V70.7607ZM0.135742 47H1.26187V45.8739H0.135742V47ZM0 47H-1.12613V48.1261H0V47ZM118.108 0L118.108 1.12613C126.816 1.12618 133.874 8.18445 133.874 16.8916H135H136.126C136.126 6.94055 128.059 -1.12607 118.108 -1.12613L118.108 0ZM135 16.8916H133.874V47H135H136.126V16.8916H135ZM135 47V45.8739H39.1357V47V48.1261H135V47ZM39.1357 47H38.0096V70.7607H39.1357H40.2619V47H39.1357ZM39.1357 70.7607V69.6346H0.135742V70.7607V71.8869H39.1357V70.7607ZM0.135742 70.7607H1.26187V47H0.135742H-0.990384V70.7607H0.135742ZM0.135742 47V45.8739H0V47V48.1261H0.135742V47ZM0 47H1.12613V18.0176H0H-1.12613V47H0ZM0 18.0176H1.12613C1.12613 8.68852 8.68934 1.12613 18.0186 1.12613V0V-1.12613C7.44562 -1.12613 -1.12613 7.44448 -1.12613 18.0176H0ZM18.0186 0V1.12613H118.108V0V-1.12613H18.0186V0Z" fill="var(--stroke-0, black)" mask="url(#path-1-inside-1_233_876)"/>
</g>
</svg>
