<svg preserveAspectRatio="none" width="100%" height="100%" overflow="visible" style="display: block;" viewBox="0 0 42.45 50.9699" fill="none" xmlns="http://www.w3.org/2000/svg">
<g id="Group">
<path id="Vector" d="M9.4305 36.2809C4.96875 32.7799 2.1 27.3371 2.1 21.225C2.1 10.6624 10.6624 2.1 21.225 2.1C31.7876 2.1 40.35 10.6624 40.35 21.225C40.35 27.3371 37.4824 32.7799 33.0195 36.2809C32.6903 37.5955 32.3256 38.9009 31.926 40.1959C31.5818 41.3186 30.6491 42.1343 29.4802 42.2569C27.9131 42.42 25.2705 42.6 21.225 42.6C17.1795 42.6 14.5369 42.42 12.9698 42.2569C11.8009 42.1343 10.8683 41.3186 10.524 40.1947C10.2011 39.1451 9.79275 37.7422 9.4305 36.2809Z" stroke="var(--stroke-0, white)" stroke-width="4.2" stroke-linecap="round" stroke-linejoin="round"/>
<path id="Vector_2" d="M12.7741 42.2287C13.0024 43.7024 13.2398 45.0434 13.4378 46.1032C13.7191 47.5938 14.7788 48.7908 16.2784 49.0169C17.4552 49.1958 19.0898 49.3499 21.2251 49.3499C23.2557 49.3499 24.9241 49.2104 26.1942 49.0439C27.9762 48.8099 29.2249 47.3272 29.4184 45.5396L29.7796 42.2096" stroke="var(--stroke-0, white)" stroke-width="3.24" stroke-linecap="round" stroke-linejoin="round"/>
<g id="Group_2">
<path id="Vector_3" d="M21.9184 26.5738L21.9097 26.5753L21.8583 26.6006L21.8439 26.6035L21.8338 26.6006L21.7824 26.5745C21.7747 26.5726 21.7689 26.5741 21.765 26.5789L21.7621 26.5861L21.7498 26.8957L21.7535 26.9102L21.7607 26.9196L21.8359 26.9731L21.8468 26.976L21.8555 26.9731L21.9307 26.9196L21.9394 26.908L21.9423 26.8957L21.93 26.5868C21.928 26.5791 21.9242 26.5748 21.9184 26.5738ZM22.1094 26.4921L22.0992 26.4935L21.9661 26.5608L21.9589 26.568L21.9567 26.576L21.9697 26.887L21.9734 26.8957L21.9792 26.9015L22.1246 26.9681C22.1337 26.9705 22.1407 26.9685 22.1455 26.9623L22.1484 26.9521L22.1238 26.508C22.1214 26.4988 22.1166 26.4935 22.1094 26.4921ZM21.5921 26.4935C21.589 26.4916 21.5852 26.491 21.5815 26.4918C21.5779 26.4926 21.5747 26.4948 21.5726 26.4979L21.5683 26.508L21.5437 26.9521C21.5442 26.9608 21.5483 26.9666 21.556 26.9695L21.5668 26.9681L21.7122 26.9008L21.7195 26.895L21.7216 26.887L21.7347 26.576L21.7325 26.5673L21.7252 26.5601L21.5921 26.4935Z" stroke="var(--stroke-0, white)" stroke-width="0.84"/>
<path id="Vector_4" d="M19.3958 19.4504C19.8284 18.1845 21.5775 18.1462 22.0903 19.3354L22.1338 19.4511L22.7175 21.1583C22.8513 21.5498 23.0675 21.9081 23.3515 22.2089C23.6355 22.5098 23.9808 22.7462 24.3639 22.9023L24.5209 22.9609L26.2281 23.544C27.494 23.9766 27.5323 25.7257 26.3438 26.2385L26.2281 26.2819L24.5209 26.8657C24.1292 26.9994 23.7708 27.2156 23.4698 27.4996C23.1688 27.7836 22.9323 28.1289 22.7761 28.5121L22.7175 28.6684L22.1345 30.3762C21.7019 31.6422 19.9528 31.6805 19.4406 30.492L19.3958 30.3762L18.8127 28.6691C18.679 28.2774 18.4629 27.919 18.1789 27.618C17.8949 27.317 17.5496 27.0805 17.1663 26.9243L17.0101 26.8657L15.3029 26.2827C14.0363 25.8501 13.998 24.101 15.1872 23.5888L15.3029 23.544L17.0101 22.9609C17.4016 22.8272 17.7599 22.611 18.0607 22.3269C18.3616 22.0429 18.598 21.6977 18.7541 21.3145L18.8127 21.1583L19.3958 19.4504ZM20.7651 19.9177L20.1821 21.6249C19.9784 22.2219 19.647 22.7673 19.211 23.2232C18.775 23.679 18.2448 24.0344 17.6575 24.2645L17.4767 24.3303L15.7695 24.9133L17.4767 25.4964C18.0737 25.7001 18.6191 26.0315 19.075 26.4675C19.5308 26.9035 19.8862 27.4336 20.1163 28.0209L20.1821 28.2018L20.7651 29.9089L21.3482 28.2018C21.5519 27.6048 21.8833 27.0594 22.3193 26.6035C22.7553 26.1476 23.2854 25.7923 23.8727 25.5622L24.0536 25.4971L25.7608 24.9133L24.0536 24.3303C23.4566 24.1266 22.9112 23.7952 22.4553 23.3592C21.9994 22.9232 21.6441 22.393 21.414 21.8057L21.3489 21.6249L20.7651 19.9177ZM26.5521 16.9562C26.6875 16.9562 26.8201 16.9942 26.9349 17.0658C27.0497 17.1374 27.1422 17.2398 27.2017 17.3613L27.2364 17.4459L27.4896 18.1881L28.2325 18.4413C28.3681 18.4874 28.487 18.5727 28.5741 18.6864C28.6612 18.8001 28.7126 18.9371 28.7217 19.08C28.7309 19.223 28.6974 19.3654 28.6255 19.4893C28.5536 19.6132 28.4465 19.7129 28.3179 19.7759L28.2325 19.8106L27.4903 20.0638L27.2372 20.8067C27.191 20.9423 27.1056 21.0611 26.9919 21.1482C26.8781 21.2352 26.7411 21.2865 26.5982 21.2955C26.4552 21.3046 26.3128 21.271 26.189 21.1991C26.0651 21.1271 25.9654 21.02 25.9025 20.8914L25.8678 20.8067L25.6146 20.0645L24.8717 19.8114C24.7361 19.7653 24.6172 19.68 24.5301 19.5663C24.443 19.4526 24.3917 19.3155 24.3825 19.1726C24.3734 19.0297 24.4069 18.8872 24.4788 18.7633C24.5507 18.6395 24.6577 18.5397 24.7864 18.4767L24.8717 18.442L25.6139 18.1888L25.8671 17.4459C25.9159 17.303 26.0081 17.1789 26.131 17.0911C26.2539 17.0033 26.4011 16.9561 26.5521 16.9562Z" fill="var(--fill-0, white)" stroke="var(--stroke-0, white)" stroke-width="0.84"/>
</g>
</g>
</svg>
