<svg preserveAspectRatio="none" width="100%" height="100%" overflow="visible" style="display: block;" viewBox="0 0 40 37.2766" fill="none" xmlns="http://www.w3.org/2000/svg">
<g id="Container">
<path id="Icon" d="M32.6809 0L23.6596 9.10638V29.1064L32.6809 20.9362V0ZM0 9.10638V35.7447C0 35.9716 0.0992908 36.1702 0.297872 36.3404C0.496454 36.5106 0.70922 36.5957 0.93617 36.5957C1.04965 36.5957 1.13475 36.5816 1.19149 36.5532C1.24823 36.5248 1.30496 36.5106 1.3617 36.5106C2.60993 35.9433 4.02837 35.4752 5.61702 35.1064C7.20567 34.7376 8.68085 34.5532 10.0426 34.5532C11.8014 34.5532 13.5745 34.7518 15.3617 35.1489C17.1489 35.5461 18.695 36.2553 20 37.2766V9.10638C18.695 8.08511 17.1489 7.37589 15.3617 6.97872C13.5745 6.58156 11.8014 6.38298 10.0426 6.38298C8.22695 6.38298 6.43972 6.58156 4.68085 6.97872C2.92199 7.37589 1.3617 8.08511 0 9.10638ZM40 33.617V9.10638C39.4326 8.70922 38.8511 8.36879 38.2553 8.08511C37.6596 7.80142 37.0213 7.5461 36.3404 7.31915V31.8298C35.3191 31.4894 34.2837 31.2482 33.234 31.1064C32.1844 30.9645 31.0922 30.8936 29.9574 30.8936C28.9362 30.8936 27.8156 31.0071 26.5957 31.234C25.3759 31.461 24.1702 31.7872 22.9787 32.2128C21.7872 32.6383 20.7943 33.1064 20 33.617V37.2766C20.7943 36.766 21.7872 36.2979 22.9787 35.8723C24.1702 35.4468 25.3759 35.1206 26.5957 34.8936C27.8156 34.6667 28.9362 34.5532 29.9574 34.5532C31.4894 34.5532 32.9929 34.695 34.4681 34.9787C35.9433 35.2624 37.3333 35.7447 38.6383 36.4255C38.7518 36.4823 38.8936 36.5106 39.0638 36.5106C39.2908 36.5106 39.5035 36.4113 39.7021 36.2128C39.9007 36.0142 40 35.8014 40 35.5745V33.617Z" fill="var(--fill-0, white)"/>
</g>
</svg>
