<svg preserveAspectRatio="none" width="100%" height="100%" overflow="visible" style="display: block;" viewBox="0 0 30 30" fill="none" xmlns="http://www.w3.org/2000/svg">
<g id="noto:fire">
<path id="Vector" d="M8.33438 9.54609C8.20078 10.9711 8.10703 13.493 8.94844 14.5664C8.94844 14.5664 8.55234 11.7961 12.1031 8.32031C13.5328 6.92109 13.8633 5.01797 13.3641 3.59063C13.0805 2.78203 12.5625 2.11406 12.1125 1.64766C11.85 1.37344 12.0516 0.921094 12.4336 0.9375C14.7445 1.04063 18.4898 1.68281 20.0812 5.67656C20.7797 7.42969 20.8312 9.24141 20.4984 11.0836C20.2875 12.2602 19.5375 14.8758 21.2484 15.1969C22.4695 15.4266 23.0602 14.4563 23.325 13.7578C23.4352 13.4672 23.8172 13.3945 24.0234 13.6266C26.0859 15.9727 26.2617 18.7359 25.8352 21.1148C25.0102 25.7133 20.3531 29.0602 15.7266 29.0602C9.94687 29.0602 5.34609 25.7531 4.15312 19.7672C3.67266 17.3508 3.91641 12.5695 7.64297 9.19453C7.91953 8.94141 8.37188 9.16641 8.33438 9.54609Z" fill="url(#paint0_radial_233_929)"/>
<path id="Vector_2" d="M17.8383 18.1453C15.7078 15.4031 16.6617 12.2742 17.1844 11.0273C17.2547 10.8633 17.0672 10.7086 16.9195 10.8094C16.0031 11.4328 14.1258 12.9 13.2516 14.9648C12.068 17.7562 12.1523 19.1227 12.8531 20.7914C13.275 21.7969 12.7852 22.0102 12.5391 22.0477C12.3 22.0852 12.0797 21.9258 11.9039 21.7594C11.3983 21.2738 11.038 20.657 10.8633 19.9781C10.8258 19.8328 10.6359 19.793 10.5492 19.9125C9.89297 20.8195 9.55312 22.275 9.53672 23.3039C9.48516 26.4844 12.1125 29.0625 15.2906 29.0625C19.2961 29.0625 22.2141 24.6328 19.9125 20.9297C19.2445 19.8516 18.6164 19.1461 17.8383 18.1453Z" fill="url(#paint1_radial_233_929)"/>
</g>
<defs>
<radialGradient id="paint0_radial_233_929" cx="0" cy="0" r="1" gradientTransform="matrix(-16.5438 -0.0718002 -0.117957 27.1451 14.5818 29.133)" gradientUnits="userSpaceOnUse">
<stop offset="0.314" stop-color="#FF9800"/>
<stop offset="0.662" stop-color="#FF6D00"/>
<stop offset="0.972" stop-color="#F44336"/>
</radialGradient>
<radialGradient id="paint1_radial_233_929" cx="0" cy="0" r="1" gradientTransform="matrix(-0.17484 17.3092 13.0265 0.131563 15.5109 12.6699)" gradientUnits="userSpaceOnUse">
<stop offset="0.214" stop-color="#FFF176"/>
<stop offset="0.328" stop-color="#FFF27D"/>
<stop offset="0.487" stop-color="#FFF48F"/>
<stop offset="0.672" stop-color="#FFF7AD"/>
<stop offset="0.793" stop-color="#FFF9C4"/>
<stop offset="0.822" stop-color="#FFF8BD" stop-opacity="0.804"/>
<stop offset="0.863" stop-color="#FFF6AB" stop-opacity="0.529"/>
<stop offset="0.91" stop-color="#FFF38D" stop-opacity="0.209"/>
<stop offset="0.941" stop-color="#FFF176" stop-opacity="0"/>
</radialGradient>
</defs>
</svg>
