<svg preserveAspectRatio="none" width="100%" height="100%" overflow="visible" style="display: block;" viewBox="0 0 26.3457 28.7866" fill="none" xmlns="http://www.w3.org/2000/svg">
<g id="Group">
<path id="Vector" d="M13.8649 27.4947L13.8497 27.4972L13.7597 27.5416L13.7344 27.5466L13.7166 27.5416L13.6267 27.496C13.6132 27.4926 13.603 27.4951 13.5963 27.5036L13.5912 27.5162L13.5697 28.0585L13.576 28.0838L13.5887 28.1003L13.7204 28.194L13.7394 28.1991L13.7546 28.194L13.8864 28.1003L13.9016 28.08L13.9067 28.0585L13.8851 27.5175C13.8817 27.504 13.875 27.4964 13.8649 27.4947ZM14.1993 27.3515L14.1816 27.3541L13.9485 27.4719L13.9358 27.4846L13.932 27.4985L13.9548 28.0433L13.9611 28.0585L13.9713 28.0686L14.2259 28.1852C14.242 28.1894 14.2542 28.186 14.2627 28.175L14.2677 28.1573L14.2247 27.3794C14.2204 27.3634 14.212 27.3541 14.1993 27.3515ZM13.2935 27.3541C13.2879 27.3507 13.2812 27.3496 13.2749 27.351C13.2685 27.3524 13.2629 27.3562 13.2593 27.3617L13.2517 27.3794L13.2086 28.1573C13.2094 28.1725 13.2166 28.1826 13.2301 28.1877L13.2491 28.1852L13.5038 28.0673L13.5165 28.0572L13.5203 28.0433L13.5431 27.4985L13.5393 27.4833L13.5266 27.4706L13.2935 27.3541Z" stroke="var(--stroke-0, white)" stroke-width="1.12613"/>
<path id="Vector_2" d="M9.4469 4.93131C10.2045 2.71425 13.2678 2.6471 14.1661 4.72987L14.2421 4.93257L15.2645 7.92244C15.4988 8.60812 15.8774 9.23558 16.3748 9.7625C16.8722 10.2894 17.4769 10.7035 18.1479 10.9769L18.4228 11.0795L21.4127 12.1006C23.6298 12.8582 23.6969 15.9216 21.6154 16.8198L21.4127 16.8958L18.4228 17.9182C17.7369 18.1524 17.1092 18.5309 16.5821 19.0283C16.0549 19.5258 15.6406 20.1305 15.3671 20.8017L15.2645 21.0753L14.2433 24.0664C13.4857 26.2835 10.4224 26.3506 9.52544 24.2691L9.4469 24.0664L8.42578 21.0766C8.19163 20.3907 7.81308 19.7629 7.31566 19.2358C6.81824 18.7087 6.21353 18.2943 5.54234 18.0208L5.26869 17.9182L2.27882 16.8971C0.0604953 16.1395 -0.00664973 13.0762 2.07612 12.1792L2.27882 12.1006L5.26869 11.0795C5.95437 10.8452 6.58183 10.4666 7.10875 9.96919C7.63567 9.47178 8.04978 8.86715 8.32316 8.19609L8.42578 7.92244L9.4469 4.93131ZM11.8451 5.74972L10.824 8.73958C10.4672 9.78515 9.88685 10.7404 9.12325 11.5388C8.35965 12.3372 7.4312 12.9595 6.40256 13.3625L6.08583 13.4778L3.09597 14.4989L6.08583 15.52C7.1314 15.8768 8.08664 16.4571 8.88503 17.2207C9.68341 17.9843 10.3058 18.9128 10.7087 19.9414L10.824 20.2582L11.8451 23.248L12.8662 20.2582C13.223 19.2126 13.8034 18.2574 14.567 17.459C15.3306 16.6606 16.259 16.0382 17.2877 15.6353L17.6044 15.5213L20.5943 14.4989L17.6044 13.4778C16.5588 13.121 15.6036 12.5406 14.8052 11.777C14.0068 11.0134 13.3845 10.085 12.9815 9.05631L12.8675 8.73958L11.8451 5.74972ZM21.9803 0.563063C22.2173 0.563063 22.4495 0.629547 22.6506 0.754961C22.8517 0.880375 23.0136 1.05969 23.1179 1.27252L23.1787 1.42075L23.6221 2.72058L24.9232 3.16399C25.1608 3.24469 25.369 3.39408 25.5215 3.59323C25.674 3.79239 25.764 4.03234 25.78 4.28268C25.796 4.53303 25.7374 4.78249 25.6114 4.99945C25.4855 5.21641 25.298 5.39111 25.0727 5.50141L24.9232 5.56222L23.6234 6.00563L23.18 7.30673C23.0992 7.54418 22.9497 7.75229 22.7504 7.90469C22.5512 8.05709 22.3112 8.14692 22.0609 8.1628C21.8106 8.17867 21.5611 8.11988 21.3443 7.99386C21.1274 7.86785 20.9528 7.68029 20.8426 7.45495L20.7818 7.30673L20.3384 6.0069L19.0373 5.56349C18.7997 5.48279 18.5915 5.3334 18.439 5.13424C18.2865 4.93509 18.1965 4.69514 18.1805 4.44479C18.1645 4.19445 18.2232 3.94499 18.3491 3.72803C18.475 3.51107 18.6625 3.33637 18.8878 3.22607L19.0373 3.16526L20.3371 2.72185L20.7805 1.42075C20.8659 1.17044 21.0276 0.95315 21.2427 0.799337C21.4579 0.645524 21.7158 0.562904 21.9803 0.563063Z" fill="var(--fill-0, white)" stroke="var(--stroke-0, white)" stroke-width="1.12613"/>
</g>
</svg>
