<svg preserveAspectRatio="none" width="100%" height="100%" overflow="visible" style="display: block;" viewBox="0 0 40 40" fill="none" xmlns="http://www.w3.org/2000/svg">
<g id="icon-park-outline:good-two">
<path id="Vector" d="M3.49084 18.4775C3.47086 18.2474 3.49893 18.0156 3.57327 17.7969C3.64762 17.5782 3.7666 17.3774 3.92269 17.2071C4.07878 17.0368 4.26855 16.9009 4.47998 16.8078C4.6914 16.7148 4.91985 16.6667 5.15084 16.6667H8.33334C8.77537 16.6667 9.19929 16.8423 9.51185 17.1548C9.82441 17.4674 10 17.8913 10 18.3333V34.1667C10 34.6087 9.82441 35.0326 9.51185 35.3452C9.19929 35.6577 8.77537 35.8333 8.33334 35.8333H6.52834C6.1112 35.8334 5.70918 35.6771 5.40169 35.3952C5.0942 35.1133 4.90359 34.7264 4.86751 34.3108L3.49084 18.4775ZM15 17.8125C15 17.1158 15.4333 16.4925 16.0625 16.1958C17.4367 15.5475 19.7775 14.245 20.8333 12.4842C22.1942 10.2142 22.4508 6.11333 22.4925 5.17416C22.4983 5.0425 22.495 4.91083 22.5125 4.78083C22.7383 3.15333 25.8792 5.05416 27.0833 7.06416C27.7375 8.15416 27.8208 9.58666 27.7525 10.7058C27.6783 11.9025 27.3275 13.0583 26.9833 14.2067L26.25 16.6542H35.2975C35.555 16.6541 35.809 16.7138 36.0396 16.8284C36.2702 16.9431 36.4711 17.1096 36.6265 17.3149C36.7819 17.5202 36.8876 17.7588 36.9354 18.0118C36.9831 18.2648 36.9716 18.5255 36.9017 18.7733L32.4267 34.62C32.3279 34.9695 32.1176 35.2772 31.8279 35.4962C31.5382 35.7152 31.1849 35.8336 30.8217 35.8333H16.6667C16.2246 35.8333 15.8007 35.6577 15.4882 35.3452C15.1756 35.0326 15 34.6087 15 34.1667V17.8125Z" stroke="var(--stroke-0, white)" stroke-width="3.55556" stroke-linecap="round" stroke-linejoin="round"/>
</g>
</svg>
