<svg preserveAspectRatio="none" width="100%" height="100%" overflow="visible" style="display: block;" viewBox="0 0 46.8359 48.3261" fill="none" xmlns="http://www.w3.org/2000/svg">
<g id="Group 2">
<path id="Vector" d="M23.418 47.7631C10.8151 47.7631 0.563063 37.1768 0.563063 24.1631C0.563063 11.1493 10.8151 0.563063 23.418 0.563063C36.0208 0.563063 46.2728 11.1493 46.2728 24.1631C46.2728 37.1768 36.0208 47.7631 23.418 47.7631ZM23.418 3.93449C12.6109 3.93449 3.82805 13.0036 3.82805 24.1631C3.82805 35.3225 12.6109 44.3916 23.418 44.3916C34.225 44.3916 43.0079 35.3225 43.0079 24.1631C43.0079 13.0036 34.225 3.93449 23.418 3.93449Z" fill="var(--fill-0, white)" stroke="var(--stroke-0, white)" stroke-width="1.12613"/>
<path id="Vector_2" d="M23.4178 35.9632C22.5036 35.9632 21.7853 35.2214 21.7853 34.2774V14.0489C21.7853 13.1049 22.5036 12.3632 23.4178 12.3632C24.332 12.3632 25.0503 13.1049 25.0503 14.0489V34.2774C25.0503 35.2214 24.332 35.9632 23.4178 35.9632Z" fill="var(--fill-0, white)" stroke="var(--stroke-0, white)" stroke-width="1.12613"/>
<path id="Vector_3" d="M33.2127 25.8489H13.6228C12.7086 25.8489 11.9903 25.1072 11.9903 24.1632C11.9903 23.2192 12.7086 22.4774 13.6228 22.4774H33.2127C34.1269 22.4774 34.8452 23.2192 34.8452 24.1632C34.8452 25.1072 34.1269 25.8489 33.2127 25.8489Z" fill="var(--fill-0, white)" stroke="var(--stroke-0, white)" stroke-width="1.12613"/>
</g>
</svg>
