<svg preserveAspectRatio="none" width="100%" height="100%" overflow="visible" style="display: block;" viewBox="0 0 35.0068 37.195" fill="none" xmlns="http://www.w3.org/2000/svg">
<g id="Group">
<g id="Vector">
</g>
<path id="Vector_2" d="M9.15796e-05 17.6416C-0.0165751 15.53 2.24509 14.33 3.96509 15.2983L4.15342 15.415L8.61676 18.4216C10.9901 20.0216 9.51342 23.665 6.78342 23.28L6.55509 23.2383L6.37342 23.1983C7.39829 25.199 8.94346 26.8866 10.8464 28.0833C12.7493 29.2801 14.9395 29.9419 17.1868 29.999C19.434 30.0561 21.6551 29.5065 23.6163 28.408C25.5776 27.3095 27.2065 25.7027 28.3318 23.7566C28.4957 23.4721 28.7141 23.2226 28.9744 23.0225C29.2347 22.8224 29.5319 22.6755 29.8491 22.5902C30.1662 22.5049 30.497 22.4829 30.8226 22.5255C31.1482 22.5681 31.4622 22.6744 31.7468 22.8383C32.0313 23.0022 32.2807 23.2206 32.4809 23.4809C32.681 23.7413 32.8279 24.0385 32.9132 24.3556C32.9985 24.6727 33.0204 25.0035 32.9779 25.3291C32.9353 25.6547 32.829 25.9688 32.6651 26.2533C28.8034 32.9533 20.8001 36.5066 12.9734 34.4083C9.2744 33.4179 6.00234 31.2416 3.65896 28.213C1.31559 25.1844 0.0302655 21.4708 9.15796e-05 17.6416ZM2.34342 8.7583C6.20342 2.05663 14.2068 -1.49503 22.0334 0.599966C25.7324 1.59036 29.0045 3.7667 31.3479 6.79527C33.6913 9.82384 34.9766 13.5374 35.0068 17.3666C35.0234 19.4783 32.7618 20.6783 31.0418 19.7116L30.8534 19.595L26.3901 16.5866C24.0168 14.9883 25.4934 11.345 28.2218 11.73L28.4518 11.7716L28.6318 11.81C27.6066 9.80941 26.0612 8.12214 24.1581 6.92568C22.255 5.72922 20.0646 5.06779 17.8174 5.01099C15.5702 4.95419 13.3492 5.50412 11.3881 6.60292C9.42704 7.70171 7.79836 9.30875 6.67342 11.255C6.5144 11.5486 6.29817 11.8074 6.03749 12.016C5.77682 12.2247 5.47698 12.379 5.15567 12.4699C4.83437 12.5608 4.49812 12.5864 4.16675 12.5453C3.83539 12.5041 3.51564 12.3969 3.22637 12.2301C2.9371 12.0633 2.68417 11.8403 2.48252 11.5741C2.28086 11.308 2.13457 11.0041 2.05227 10.6805C1.96997 10.3569 1.95333 10.0201 2.00334 9.68995C2.05334 9.35981 2.16898 9.04302 2.34342 8.7583Z" fill="var(--fill-0, white)"/>
</g>
</svg>
