<svg preserveAspectRatio="none" width="100%" height="100%" overflow="visible" style="display: block;" viewBox="0 0 20 23" fill="none" xmlns="http://www.w3.org/2000/svg">
<g id="Container">
<path id="Icon" d="M14.1047 20.7324H2.36915V5.723C2.36915 5.12911 1.81818 4.5892 1.15702 4.5892C0.550964 4.5892 0 5.12911 0 5.723V20.7324C0 21.9742 1.04683 23 2.36915 23H14.1047C14.7658 23 15.2617 22.5141 15.2617 21.8662C15.2617 21.2183 14.7658 20.7324 14.1047 20.7324ZM20 16.0892V2.26761C20 1.02582 18.8981 0 17.6309 0H7.05234C5.78512 0 4.6832 1.02582 4.6832 2.26761V16.0892C4.6832 17.385 5.78512 18.4108 7.05234 18.4108H17.6309C18.8981 18.4108 20 17.385 20 16.0892ZM17.6309 16.0892H7.05234V2.26761H17.6309V16.0892Z" fill="var(--fill-0, #6B7280)"/>
</g>
</svg>
