<svg preserveAspectRatio="none" width="100%" height="100%" overflow="visible" style="display: block;" viewBox="0 0 47.1154 47.1154" fill="none" xmlns="http://www.w3.org/2000/svg">
<g id="Background+Border">
<rect x="0.961538" y="0.961538" width="45.1923" height="45.1923" rx="22.5962" fill="var(--fill-0, #27272A)"/>
<rect x="0.961538" y="0.961538" width="45.1923" height="45.1923" rx="22.5962" stroke="var(--stroke-0, #3F3F46)" stroke-width="1.92308"/>
<path id="Icon" d="M25.8714 20.1923L26.9231 21.244L16.7218 31.3927H15.7227V30.3936L25.8714 20.1923ZM29.9204 13.4615C29.6049 13.4615 29.3419 13.5667 29.1316 13.777L27.0808 15.8278L31.2876 20.0346L33.3383 17.9838C33.759 17.5631 33.759 16.8269 33.3383 16.4062L30.7091 13.777C30.4988 13.5667 30.1833 13.4615 29.9204 13.4615ZM25.8714 17.0373L13.4615 29.4471V33.6538H17.6683L30.0781 21.244L25.8714 17.0373Z" fill="var(--fill-0, #9BFE03)" fill-opacity="0.9"/>
</g>
</svg>
