<svg preserveAspectRatio="none" width="100%" height="100%" overflow="visible" style="display: block;" viewBox="0 0 43.5417 45.8333" fill="none" xmlns="http://www.w3.org/2000/svg">
<g id="Setting">
<path id="Vector" d="M23.4145 0C25.1475 0 26.7167 0.9625 27.5832 2.38333C28.0048 3.07083 28.2858 3.91875 28.2155 4.8125C28.1687 5.5 28.3795 6.1875 28.7542 6.82917C29.9486 8.77708 32.5951 9.51042 34.656 8.41042C36.9746 7.08125 39.9021 7.88333 41.237 10.1521L42.8061 12.8562C44.1645 15.125 43.415 18.0354 41.073 19.3417C39.0824 20.5104 38.3798 23.1 39.5742 25.0708C39.9489 25.6896 40.3705 26.2167 41.0262 26.5375C41.8459 26.9729 42.4782 27.6604 42.9232 28.3479C43.7898 29.7687 43.7195 31.5104 42.8764 33.0458L41.237 35.7958C40.3705 37.2625 38.7545 38.1792 37.0917 38.1792C36.272 38.1792 35.3586 37.95 34.6092 37.4917C34.0003 37.1021 33.2977 36.9646 32.5482 36.9646C30.2297 36.9646 28.2858 38.8667 28.2155 41.1354C28.2155 43.7708 26.0609 45.8333 23.3676 45.8333H20.1825C17.4658 45.8333 15.3112 43.7708 15.3112 41.1354C15.2644 38.8667 13.3205 36.9646 11.002 36.9646C10.2291 36.9646 9.5265 37.1021 8.941 37.4917C8.19157 37.95 7.25478 38.1792 6.4585 38.1792C4.77227 38.1792 3.1563 37.2625 2.28977 35.7958L0.673795 33.0458C-0.192739 31.5562 -0.239579 29.7687 0.626956 28.3479C1.00167 27.6604 1.70427 26.9729 2.50054 26.5375C3.1563 26.2167 3.57786 25.6896 3.976 25.0708C5.14699 23.1 4.44439 20.5104 2.4537 19.3417C0.135139 18.0354 -0.614297 15.125 0.720635 12.8562L2.28977 10.1521C3.64812 7.88333 6.55218 7.08125 8.89417 8.41042C10.9317 9.51042 13.5781 8.77708 14.7725 6.82917C15.1473 6.1875 15.358 5.5 15.3112 4.8125C15.2644 3.91875 15.522 3.07083 15.967 2.38333C16.8335 0.9625 18.4026 0.0458333 20.1123 0H23.4145ZM21.7985 16.4542C18.1216 16.4542 15.1473 19.3417 15.1473 22.9396C15.1473 26.5375 18.1216 29.4021 21.7985 29.4021C25.4754 29.4021 28.3795 26.5375 28.3795 22.9396C28.3795 19.3417 25.4754 16.4542 21.7985 16.4542Z" fill="var(--fill-0, #9CA3AF)"/>
</g>
</svg>
