<svg preserveAspectRatio="none" width="100%" height="100%" overflow="visible" style="display: block;" viewBox="0 0 32.5625 30.9343" fill="none" xmlns="http://www.w3.org/2000/svg">
<g id="Add-User">
<path id="Vector" d="M12.2109 20.3763C18.8322 20.3763 24.4218 21.4658 24.4218 25.6735C24.4218 29.8812 18.7963 30.9343 12.2109 30.9343C5.58968 30.9343 0 29.8432 0 25.6372C0 21.4294 5.6239 20.3763 12.2109 20.3763ZM27.6764 8.14062C28.4844 8.14062 29.1401 8.80725 29.1401 9.62484V11.5399H31.0988C31.9051 11.5399 32.5625 12.2065 32.5625 13.0241C32.5625 13.8417 31.9051 14.5084 31.0988 14.5084H29.1401V16.4251C29.1401 17.2427 28.4844 17.9094 27.6764 17.9094C26.8702 17.9094 26.2128 17.2427 26.2128 16.4251V14.5084H24.2574C23.4494 14.5084 22.7937 13.8417 22.7937 13.0241C22.7937 12.2065 23.4494 11.5399 24.2574 11.5399H26.2128V9.62484C26.2128 8.80725 26.8702 8.14062 27.6764 8.14062ZM12.2109 0C16.6957 0 20.2907 3.64151 20.2907 8.18432C20.2907 12.7271 16.6957 16.3686 12.2109 16.3686C7.72614 16.3686 4.13115 12.7271 4.13115 8.18432C4.13115 3.64151 7.72614 0 12.2109 0Z" fill="var(--fill-0, #9BFE03)" fill-opacity="0.9"/>
</g>
</svg>
