<svg preserveAspectRatio="none" width="100%" height="100%" overflow="visible" style="display: block;" viewBox="0 0 45 45" fill="none" xmlns="http://www.w3.org/2000/svg">
<g id="More Square (4) 1">
<path id="Vector" fill-rule="evenodd" clip-rule="evenodd" d="M9.5471 11.3473C7.34574 13.5486 6.29998 17.2317 6.29998 23.4002C6.29998 29.5686 7.34574 33.2517 9.5471 35.453C11.7484 37.6544 15.4316 38.7002 21.6 38.7002C27.7684 38.7002 31.4516 37.6544 33.6528 35.453C35.8542 33.2517 36.9 29.5686 36.9 23.4002C36.9 17.2317 35.8542 13.5486 33.6528 11.3473C31.4516 9.14591 27.7684 8.10015 21.6 8.10015C15.4316 8.10015 11.7484 9.14591 9.5471 11.3473ZM7.6379 9.43809C10.6399 6.43608 15.2818 5.40015 21.6 5.40015C27.9182 5.40015 32.56 6.43608 35.562 9.43809C38.5641 12.4401 39.6 17.082 39.6 23.4002C39.6 29.7183 38.5641 34.3602 35.562 37.3622C32.56 40.3643 27.9182 41.4002 21.6 41.4002C15.2818 41.4002 10.6399 40.3643 7.6379 37.3622C4.63591 34.3602 3.59998 29.7183 3.59998 23.4002C3.59998 17.082 4.63591 12.4401 7.6379 9.43809Z" fill="var(--fill-0, white)"/>
<path id="Vector_2" fill-rule="evenodd" clip-rule="evenodd" d="M26.9882 23.4C26.9882 22.4058 27.794 21.6 28.7882 21.6H28.8044C29.7985 21.6 30.6044 22.4058 30.6044 23.4C30.6044 24.3941 29.7985 25.2 28.8044 25.2H28.7882C27.794 25.2 26.9882 24.3941 26.9882 23.4Z" fill="var(--fill-0, white)"/>
<path id="Vector_3" fill-rule="evenodd" clip-rule="evenodd" d="M19.7899 23.4C19.7899 22.4058 20.5958 21.6 21.5899 21.6H21.6061C22.6003 21.6 23.4061 22.4058 23.4061 23.4C23.4061 24.3941 22.6003 25.2 21.6061 25.2H21.5899C20.5958 25.2 19.7899 24.3941 19.7899 23.4Z" fill="var(--fill-0, white)"/>
<path id="Vector_4" fill-rule="evenodd" clip-rule="evenodd" d="M12.5922 23.4C12.5922 22.4058 13.398 21.6 14.3922 21.6H14.4084C15.4025 21.6 16.2084 22.4058 16.2084 23.4C16.2084 24.3941 15.4025 25.2 14.4084 25.2H14.3922C13.398 25.2 12.5922 24.3941 12.5922 23.4Z" fill="var(--fill-0, white)"/>
</g>
</svg>
