<svg preserveAspectRatio="none" width="100%" height="100%" overflow="visible" style="display: block;" viewBox="0 0 26 26" fill="none" xmlns="http://www.w3.org/2000/svg">
<g id="Container">
<path id="Icon" d="M22.2792 7.97156L23.3204 5.72355L25.5866 4.71786C26.1378 4.54039 26.1378 3.83049 25.5866 3.59386L23.3204 2.58817L22.2792 0.399317C22.0342 -0.133106 21.3604 -0.133106 21.1154 0.399317L20.0742 2.58817L17.7468 3.59386C17.2568 3.83049 17.2568 4.48123 17.7468 4.71786L20.0742 5.72355L21.1154 7.97156C21.2992 8.44482 22.0342 8.44482 22.2792 7.97156ZM11.8669 9.86462L9.78445 5.42776C9.35571 4.42207 7.88575 4.42207 7.45701 5.42776L5.37456 9.86462L0.780919 11.876C-0.260306 12.2901 -0.260306 13.7099 0.780919 14.124L5.37456 16.1354L7.45701 20.5722C7.88575 21.5779 9.35571 21.5779 9.78445 20.5722L11.8669 16.1354L16.4605 14.124C17.5018 13.7099 17.5018 12.2901 16.4605 11.876L11.8669 9.86462ZM21.1154 18.0284L20.0742 20.2765L17.7468 21.2821C17.2568 21.4596 17.2568 22.1695 17.7468 22.4061L20.0742 23.4118L21.1154 25.6007C21.2992 26.1331 22.0342 26.1331 22.2792 25.6007L23.3204 23.4118L25.5866 22.4061C26.1378 22.1695 26.1378 21.5188 25.5866 21.2821L23.3204 20.2765L22.2792 18.0284C22.0342 17.5552 21.2992 17.5552 21.1154 18.0284Z" fill="var(--fill-0, #9BFE03)" fill-opacity="0.9"/>
</g>
</svg>
