<svg preserveAspectRatio="none" width="100%" height="100%" overflow="visible" style="display: block;" viewBox="0 0 25.5108 26.4123" fill="none" xmlns="http://www.w3.org/2000/svg">
<g id="Container">
<path id="Icon" d="M21.86 8.09796L22.8816 5.8143L25.1052 4.79267C25.646 4.61238 25.646 3.89123 25.1052 3.65084L22.8816 2.62921L21.86 0.405649C21.6196 -0.135216 20.9585 -0.135216 20.7181 0.405649L19.6965 2.62921L17.4129 3.65084C16.9321 3.89123 16.9321 4.55228 17.4129 4.79267L19.6965 5.8143L20.7181 8.09796C20.8984 8.57873 21.6196 8.57873 21.86 8.09796ZM11.6436 10.021L9.60036 5.51382C9.17969 4.49219 7.73738 4.49219 7.31671 5.51382L5.27344 10.021L0.766226 12.0643C-0.255409 12.485 -0.255409 13.9273 0.766226 14.348L5.27344 16.3912L7.31671 20.8984C7.73738 21.9201 9.17969 21.9201 9.60036 20.8984L11.6436 16.3912L16.1508 14.348C17.1725 13.9273 17.1725 12.485 16.1508 12.0643L11.6436 10.021ZM20.7181 18.3143L19.6965 20.598L17.4129 21.6196C16.9321 21.7999 16.9321 22.521 17.4129 22.7614L19.6965 23.7831L20.7181 26.0066C20.8984 26.5475 21.6196 26.5475 21.86 26.0066L22.8816 23.7831L25.1052 22.7614C25.646 22.521 25.646 21.86 25.1052 21.6196L22.8816 20.598L21.86 18.3143C21.6196 17.8335 20.8984 17.8335 20.7181 18.3143Z" fill="var(--fill-0, #9BFE03)"/>
</g>
</svg>
